<svg id="prefix__Layer_1" version="1.1" viewBox="0 0 512 512" xml:space="preserve" xmlns="http://www.w3.org/2000/svg"><style>.prefix__st0{fill:#cb001c}.prefix__st1{fill:#fff}</style><path class="prefix__st0" d="M0 382.4h512v23H0z"/><path class="prefix__st1" d="M0 359.4h512v23H0z"/><path class="prefix__st0" d="M0 336.4h512v23H0z"/><path class="prefix__st1" d="M0 313.4h512v23H0z"/><path class="prefix__st0" d="M0 290.5h512v23H0z"/><path class="prefix__st1" d="M0 267.5h512v23H0z"/><path class="prefix__st0" d="M0 244.5h512v23H0z"/><path class="prefix__st1" d="M0 221.5h512v23H0z"/><path class="prefix__st0" d="M0 198.6h512v23H0z"/><path class="prefix__st1" d="M0 175.6h512v23H0z"/><path class="prefix__st0" d="M0 152.6h512v23H0z"/><path class="prefix__st1" d="M0 129.6h512v23H0z"/><path class="prefix__st0" d="M0 106.7h512v23H0z"/><path fill="#2a3560" d="M0 106.7h233.8v160.8H0z"/><path class="prefix__st1" d="M21.1 124.4l2 6.1h6.3l-5.1 3.7 1.9 6.1-5.1-3.8-5.2 3.8 2-6.1-5.2-3.7h6.4zm0 26.8l2 6.1h6.3l-5.1 3.8 1.9 6-5.1-3.7-5.2 3.7 2-6-5.2-3.8h6.4zm0 26.9l2 6.1h6.3l-5.1 3.7 1.9 6.1-5.1-3.8-5.2 3.8 2-6.1-5.2-3.7h6.4zm0 26.8l2 6.1h6.3l-5.1 3.8 1.9 6-5.1-3.7-5.2 3.7 2-6-5.2-3.8h6.4zm0 26.9l2 6h6.3l-5.1 3.8 1.9 6.1-5.1-3.8-5.2 3.8 2-6.1-5.2-3.8h6.4zm18.7-93.3l2 6.1h6.3l-5.1 3.8 1.9 6-5.1-3.7-5.2 3.7 2-6-5.2-3.8h6.4zm0 26.9l2 6h6.3l-5.1 3.8 1.9 6.1-5.1-3.8-5.2 3.8 2-6.1-5.2-3.8h6.4zm0 26.8l2 6.1h6.3l-5.1 3.8 1.9 6-5.1-3.7-5.2 3.7 2-6-5.2-3.8h6.4zm0 26.9l2 6h6.3l-5.1 3.8 1.9 6.1-5.1-3.8-5.2 3.8 2-6.1-5.2-3.8h6.4zm18.9-94.7l2 6.1h6.4l-5.2 3.7 2 6.1-5.2-3.8-5.2 3.8 2-6.1-5.2-3.7h6.4zm0 26.8l2 6.1h6.4l-5.2 3.8 2 6-5.2-3.7-5.2 3.7 2-6-5.2-3.8h6.4zm0 26.9l2 6.1h6.4l-5.2 3.7 2 6.1-5.2-3.8-5.2 3.8 2-6.1-5.2-3.7h6.4zm0 26.8l2 6.1h6.4l-5.2 3.8 2 6-5.2-3.7-5.2 3.7 2-6-5.2-3.8h6.4zm0 26.9l2 6h6.4l-5.2 3.8 2 6.1-5.2-3.8-5.2 3.8 2-6.1-5.2-3.8h6.4zm18.7-93.3l2 6.1h6.4l-5.2 3.8 2 6-5.2-3.7-5.2 3.7 2-6-5.2-3.8h6.4zm0 26.9l2 6h6.4l-5.2 3.8 2 6.1-5.2-3.8-5.2 3.8 2-6.1-5.2-3.8h6.4zm0 26.8l2 6.1h6.4l-5.2 3.8 2 6-5.2-3.7-5.2 3.7 2-6-5.2-3.8h6.4zm0 26.9l2 6h6.4l-5.2 3.8 2 6.1-5.2-3.8-5.2 3.8 2-6.1-5.2-3.8h6.4zm18.9-94.7l2 6.1h6.4l-5.2 3.7 2 6.1-5.2-3.8-5.1 3.8 2-6.1-5.2-3.7h6.4zm0 26.8l2 6.1h6.4l-5.2 3.8 2 6-5.2-3.7-5.1 3.7 2-6-5.2-3.8h6.4zm0 26.9l2 6.1h6.4l-5.2 3.7 2 6.1-5.2-3.8-5.1 3.8 2-6.1-5.2-3.7h6.4zm0 26.8l2 6.1h6.4l-5.2 3.8 2 6-5.2-3.7-5.1 3.7 2-6L88 211h6.4zm0 26.9l2 6h6.4l-5.2 3.8 2 6.1-5.2-3.8-5.1 3.8 2-6.1-5.2-3.8h6.4zm18.7-93.3l2 6.1h6.4l-5.2 3.8 2 6-5.2-3.7-5.1 3.7 1.9-6-5.1-3.8h6.4zm0 26.9l2 6h6.4l-5.2 3.8 2 6.1-5.2-3.8-5.1 3.8 1.9-6.1-5.1-3.8h6.4zm0 26.8l2 6.1h6.4l-5.2 3.8 2 6-5.2-3.7-5.1 3.7 1.9-6-5.1-3.8h6.4zm0 26.9l2 6h6.4l-5.2 3.8 2 6.1-5.2-3.8-5.1 3.8 1.9-6.1-5.1-3.8h6.4zm19-94.7l2 6.1h6.3l-5.1 3.7 1.9 6.1-5.1-3.8-5.2 3.8 2-6.1-5.2-3.7h6.4zm0 26.8l2 6.1h6.3l-5.1 3.8 1.9 6-5.1-3.7-5.2 3.7 2-6-5.2-3.8h6.4zm0 26.9l2 6.1h6.3l-5.1 3.7 1.9 6.1-5.1-3.8-5.2 3.8 2-6.1-5.2-3.7h6.4zm0 26.8l2 6.1h6.3l-5.1 3.8 1.9 6-5.1-3.7-5.2 3.7 2-6-5.2-3.8h6.4zm0 26.9l2 6h6.3l-5.1 3.8 1.9 6.1-5.1-3.8-5.2 3.8 2-6.1-5.2-3.8h6.4zm18.7-93.3l1.9 6.1h6.4l-5.1 3.8 1.9 6-5.1-3.7-5.2 3.7 2-6-5.2-3.8h6.4zm0 26.9l1.9 6h6.4l-5.1 3.8 1.9 6.1-5.1-3.8-5.2 3.8 2-6.1-5.2-3.8h6.4zm0 26.8l1.9 6.1h6.4l-5.1 3.8 1.9 6-5.1-3.7-5.2 3.7 2-6-5.2-3.8h6.4zm0 26.9l1.9 6h6.4l-5.1 3.8 1.9 6.1-5.1-3.8-5.2 3.8 2-6.1-5.2-3.8h6.4zm18.9-94.7l2 6.1h6.4l-5.2 3.7 2 6.1-5.2-3.8-5.2 3.8 2-6.1-5.2-3.7h6.4zm0 26.8l2 6.1h6.4l-5.2 3.8 2 6-5.2-3.7-5.2 3.7 2-6-5.2-3.8h6.4zm0 26.9l2 6.1h6.4l-5.2 3.7 2 6.1-5.2-3.8-5.2 3.8 2-6.1-5.2-3.7h6.4zm0 26.8l2 6.1h6.4l-5.2 3.8 2 6-5.2-3.7-5.2 3.7 2-6-5.2-3.8h6.4zm0 26.9l2 6h6.4l-5.2 3.8 2 6.1-5.2-3.8-5.2 3.8 2-6.1-5.2-3.8h6.4zm18.7-93.3l2 6.1h6.4l-5.2 3.8 2 6-5.2-3.7-5.2 3.7 2-6-5.2-3.8h6.4zm0 26.9l2 6h6.4l-5.2 3.8 2 6.1-5.2-3.8-5.2 3.8 2-6.1-5.2-3.8h6.4zm0 26.8l2 6.1h6.4l-5.2 3.8 2 6-5.2-3.7-5.2 3.7 2-6-5.2-3.8h6.4zm0 26.9l2 6h6.4l-5.2 3.8 2 6.1-5.2-3.8-5.2 3.8 2-6.1-5.2-3.8h6.4zm18.9-94.7l2 6.1h6.4l-5.2 3.7 2 6.1-5.2-3.8-5.1 3.8 1.9-6.1-5.1-3.7h6.4zm0 26.8l2 6.1h6.4l-5.2 3.8 2 6-5.2-3.7-5.1 3.7 1.9-6-5.1-3.8h6.4zm0 26.9l2 6.1h6.4l-5.2 3.7 2 6.1-5.2-3.8-5.1 3.8 1.9-6.1-5.1-3.7h6.4zm0 26.8l2 6.1h6.4l-5.2 3.8 2 6-5.2-3.7-5.1 3.7 1.9-6-5.1-3.8h6.4zm0 26.9l2 6h6.4l-5.2 3.8 2 6.1-5.2-3.8-5.1 3.8 1.9-6.1-5.1-3.8h6.4z"/></svg>